<?xml version="1.0" encoding="UTF-8"?>
<svg id="Layer_1" xmlns="http://www.w3.org/2000/svg" version="1.1" viewBox="0 0 640 640">
  <!-- Generator: Adobe Illustrator 30.0.0, SVG Export Plug-In . SVG Version: 2.1.1 Build 123)  -->

  <path class="st0" d="M500.67,4H136.43C63.08,4,3.1,63.98,3.1,137.19v364.24c0,73.35,59.98,133.33,133.33,133.33h364.24c73.35,0,133.33-59.98,133.33-133.19V137.19c0-73.21-59.98-133.19-133.33-133.19ZM430.27,449.47c-39.28,67.86-126.57,91.38-194.58,52.38-32.24,56.04-77.3,12.11-59.56-18.58l22.1-38.3c8.31-14.5,27.03-19.57,41.53-11.12,26.19,15.21-.14-.14,26.05,15.07,38.86,22.39,89.26,8.87,111.79-29.99,22.39-38.86,8.87-89.26-29.99-111.79-25.06-14.36-.84-.56-26.19-14.92-34.64-19.99-4.79-73.07,30.41-52.8,26.19,15.21-.14-.14,26.05,15.07,68.14,39.42,91.66,127.14,52.38,195ZM460.96,155.5c-23.94,41.53-22.95,40.55-26.75,44.35-9.15,9.15-22.95,12.25-37.31,5.07-26.19-15.21.14.14-26.05-15.07-38.86-22.39-89.26-8.87-111.79,29.99-22.53,38.86-8.87,89.26,29.99,111.79,0,0,26.05,14.92,26.19,14.92,34.64,19.99,4.79,73.07-30.41,52.8-26.19-15.21.14.14-26.05-15.07-67.86-39.14-91.38-126.86-52.23-194.86,39.28-67.86,126.57-91.38,194.58-52.38l6.76-11.83c20.13-35.06,73.21-4.65,53.08,30.27Z" fill="#373567"/>
</svg>